# xmcd CD database file
#
# Track frame offsets:
#	150
#	10883
#	22422
#	40424
#	50814
#	65913
#	79904
#	87550
#	96198
#	104903
#	120529
#	129951
#	138940
#	153788
#	170930
#	184399
#	198307
#
# Disc length: 2947 seconds
#
# Revision: 9
# Processed by: cddbd v1.5.2PL0 Copyright (c) Steve Scherf et al.
# Submitted via: CDex 1.70beta2
#
DISCID=010b8111
DTITLE=Irish Folk - Various Artists -  Irish Dances  Vol.2
DYEAR=2001
DGENRE=Irish Folk
TTITLE0=Tandern
TTITLE1=The Falls Of Richmond
TTITLE2=Carrick Fergus
TTITLE3=The Blarmey Pilgrim
TTITLE4=Hills Of The Connemara
TTITLE5=Anglers
TTITLE6=The Kerry Dance
TTITLE7=The Wearing Of The Green
TTITLE8=Teviots Bridge
TTITLE9=Ballimasloe
TTITLE10=Sport Of The Chase
TTITLE11=Roscarbury
TTITLE12=The Ministrel Boy
TTITLE13=Three Young Ladies Drinking Whiskey
TTITLE14=Murohy's Folly and Scrace O'Tatties (Medley)
TTITLE15=Plains Of Bawn/Cronin's
TTITLE16=Dublin Reel/The Barren Rocks Of Aden/Drunken Piper
EXTD=YEAR: 2001
EXTT0=
EXTT1=
EXTT2=
EXTT3=
EXTT4=
EXTT5=
EXTT6=
EXTT7=
EXTT8=
EXTT9=
EXTT10=
EXTT11=
EXTT12=
EXTT13=
EXTT14=
EXTT15=
EXTT16=
PLAYORDER=
